<?xml version="1.0" encoding="UTF-8" standalone="no"?>
<svg
   viewBox="0 0 375 443.75"
   version="1.1"
   x="0px"
   y="0px"
   id="svg2187"
   xmlns="http://www.w3.org/2000/svg"
   xmlns:svg="http://www.w3.org/2000/svg"
   xmlns:rdf="http://www.w3.org/1999/02/22-rdf-syntax-ns#"
   xmlns:cc="http://creativecommons.org/ns#"
   xmlns:dc="http://purl.org/dc/elements/1.1/">
  <defs
     id="defs2191" />
  <title
     id="title2151">Seo and Web-04</title>
  <desc
     id="desc2153">Created with Sketch.</desc>
  <g
     stroke="none"
     stroke-width="1"
     fill="none"
     fill-rule="evenodd"
     id="g2181">
    <g
       fill="#000000"
       fill-rule="nonzero"
       id="g2179">
      <path
         d="M 367,358.74595 H 7.94 c -4.0454858,0 -7.325,-4.3173 -7.325,-9.64297 0,-5.32567 3.2795142,-9.64298 7.325,-9.64298 H 367 c 4.04549,0 7.325,4.31731 7.325,9.64298 0,5.32567 -3.27951,9.64297 -7.325,9.64297 z"
         id="path2155"
         style="stroke-width:1.14737;fill:#ffffff;fill-opacity:1" />
      <path
         d="M 85.61,352.32 H 39.75 c -4.042724,0 -7.32,-3.27728 -7.32,-7.32 v -79 c 0,-4.04272 3.277276,-7.32 7.32,-7.32 h 45.86 c 4.042724,0 7.32,3.27728 7.32,7.32 v 79 c 0,4.04272 -3.277276,7.32 -7.32,7.32 z M 47.07,337.67 H 78.29 V 273.35 H 47.07 Z"
         id="path2157"
         style="fill:#ffffff;fill-opacity:1" />
      <path
         d="m 247.65,352.32 h -45.86 c -4.04272,0 -7.32,-3.27728 -7.32,-7.32 v -99.72 c 0,-4.04272 3.27728,-7.32 7.32,-7.32 h 45.86 c 4.04272,0 7.32,3.27728 7.32,7.32 V 345 c 0,4.04272 -3.27728,7.32 -7.32,7.32 z m -38.54,-14.65 h 31.22 V 252.6 h -31.22 z"
         id="path2159"
         style="fill:#ffffff;fill-opacity:1" />
      <path
         d="m 325.29,352.85 h -45.86 c -4.04272,0 -7.32,-3.27728 -7.32,-7.32 V 181.14 c 0,-4.04272 3.27728,-7.32 7.32,-7.32 h 45.86 c 4.04272,0 7.32,3.27728 7.32,7.32 v 164.38 c 0.003,1.94312 -0.76739,3.80756 -2.14044,5.18249 -1.37305,1.37493 -3.23644,2.14751 -5.17956,2.14751 z M 286.75,338.2 H 318 V 188.46 h -31.25 z"
         id="path2161"
         style="fill:#ffffff;fill-opacity:1" />
      <path
         d="m 170,352.85 h -45.86 c -4.04272,0 -7.32,-3.27728 -7.32,-7.32 V 213 c 0,-4.04272 3.27728,-7.32 7.32,-7.32 H 170 c 4.04272,0 7.32,3.27728 7.32,7.32 v 132.52 c 0.003,1.94312 -0.76739,3.80756 -2.14044,5.18249 C 173.80651,352.07742 171.94312,352.85 170,352.85 Z M 131.47,338.2 h 31.22 V 220.36 h -31.22 z"
         id="path2163"
         style="fill:#ffffff;fill-opacity:1" />
      <path
         d="m 62.68,220.8736 c -11.964476,0 -21.6636,-9.69913 -21.6636,-21.6636 0,-11.96447 9.699124,-21.6636 21.6636,-21.6636 11.964476,0 21.6636,9.69913 21.6636,21.6636 -0.01389,11.95872 -9.704881,21.64971 -21.6636,21.6636 z"
         id="path2165"
         style="stroke-width:0.84;fill:#ffffff;fill-opacity:1" />
      <path
         d="m 147.07994,164.33354 c -8.76211,0 -16.66144,-5.27817 -20.01455,-13.3733 -3.35312,-8.09513 -1.49967,-17.41304 4.69607,-23.60878 6.19574,-6.19574 15.51365,-8.04919 23.60878,-4.69607 8.09513,3.35311 13.3733,11.25244 13.3733,20.01455 -0.0139,11.95872 -9.70488,21.64971 -21.6636,21.6636 z"
         id="path2167"
         style="stroke-width:0.84;fill:#ffffff;fill-opacity:1" />
      <path
         d="m 302.36,128.2736 c -11.96447,0 -21.6636,-9.69913 -21.6636,-21.6636 0,-11.964476 9.69913,-21.6636 21.6636,-21.6636 11.96447,0 21.6636,9.699124 21.6636,21.6636 -0.0139,11.95872 -9.70488,21.64971 -21.6636,21.6636 z"
         id="path2169"
         style="stroke-width:0.84;fill:#ffffff;fill-opacity:1" />
      <path
         d="m 224.72,203.8736 c -11.96447,0 -21.6636,-9.69913 -21.6636,-21.6636 0,-11.96447 9.69913,-21.6636 21.6636,-21.6636 11.96447,0 21.6636,9.69913 21.6636,21.6636 -0.0139,11.95872 -9.70488,21.64971 -21.6636,21.6636 z"
         id="path2171"
         style="stroke-width:0.84;fill:#ffffff;fill-opacity:1" />
      <path
         d="m 237.97022,175.38105 c -2.6726,-0.46673 -4.86782,-2.37344 -5.70416,-4.95437 -0.83632,-2.58093 -0.17656,-5.41275 1.71434,-7.35829 l 46.63576,-46.76022 c 1.77379,-2.05472 4.53895,-2.95919 7.18412,-2.34986 2.64517,0.60933 4.73597,2.63238 5.43206,5.25606 0.69608,2.62367 -0.11684,5.41712 -2.11206,7.25759 l -46.58202,46.80038 c -1.70015,1.75511 -4.16396,2.54613 -6.56804,2.10871 z"
         id="path2173"
         style="fill:#ffffff;fill-opacity:1" />
      <path
         d="m 208.39771,180.30498 c -1.5825,0.29134 -3.21692,0.0524 -4.64978,-0.6798 l -40.20865,-20.67264 c -3.44999,-1.91742 -4.76224,-6.22237 -2.96844,-9.73823 1.7938,-3.51586 6.04947,-4.98004 9.62677,-3.31212 l 40.20865,20.67264 c 2.79151,1.43107 4.36295,4.47988 3.90888,7.5838 -0.45407,3.10393 -2.83296,5.57485 -5.91743,6.14635 z"
         id="path2175"
         style="fill:#ffffff;fill-opacity:1" />
      <path
         d="m 77.039074,195.4484 c -2.775843,-0.73812 -4.863479,-3.03147 -5.338232,-5.86427 -0.474755,-2.83279 0.751118,-5.68147 3.134644,-7.28426 L 124.681,149.28486 c 2.16716,-1.59472 5.03451,-1.87195 7.46704,-0.72195 2.43254,1.15001 4.03807,3.54183 4.18106,6.22871 0.143,2.68686 -1.19958,5.23559 -3.49631,6.63729 l -49.845514,33.01501 c -1.744701,1.17795 -3.913437,1.54418 -5.948202,1.00448 z"
         id="path2177"
         style="fill:#ffffff;fill-opacity:1" />
    </g>
  </g>
  <metadata
     id="metadata2193">
    <rdf:RDF>
      <cc:Work
         rdf:about="">
        <dc:title>Seo and Web-04</dc:title>
      </cc:Work>
    </rdf:RDF>
  </metadata>
</svg>
