<?xml version="1.0" encoding="UTF-8" standalone="no"?>
<svg
   width="822.2793pt"
   height="822.2793pt"
   version="1.1"
   viewBox="0 0 822.27929 822.27929"
   id="svg164"
   sodipodi:docname="CenterOnMe.svg"
   inkscape:version="1.1 (c68e22c387, 2021-05-23)"
   xmlns:inkscape="http://www.inkscape.org/namespaces/inkscape"
   xmlns:sodipodi="http://sodipodi.sourceforge.net/DTD/sodipodi-0.dtd"
   xmlns="http://www.w3.org/2000/svg"
   xmlns:svg="http://www.w3.org/2000/svg">
  <sodipodi:namedview
     id="namedview166"
     pagecolor="#ffffff"
     bordercolor="#666666"
     borderopacity="1.0"
     inkscape:pageshadow="2"
     inkscape:pageopacity="0.0"
     inkscape:pagecheckerboard="0"
     inkscape:document-units="pt"
     showgrid="false"
     fit-margin-top="0"
     fit-margin-left="0"
     fit-margin-right="0"
     fit-margin-bottom="0"
     inkscape:zoom="0.23785714"
     inkscape:cx="418.31832"
     inkscape:cy="258.55856"
     inkscape:window-width="1920"
     inkscape:window-height="1051"
     inkscape:window-x="-9"
     inkscape:window-y="-9"
     inkscape:window-maximized="1"
     inkscape:current-layer="g2421" />
  <defs
     id="defs68">
    <symbol
       id="v"
       overflow="visible">
      <path
         d="M 1.8281,-0.10938 C 1.73435,-0.054692 1.63279,-0.019536 1.53122,0 1.43747,0.019531 1.332,0.03125 1.21872,0.03125 c -0.33594,0 -0.60156,-0.085938 -0.79688,-0.26562 -0.1875,-0.1875 -0.28125,-0.44141 -0.28125,-0.76562 0,-0.3125 0.09375,-0.5625 0.28125,-0.75 0.19531,-0.1875 0.46094,-0.28125 0.79688,-0.28125 0.11328,0 0.21875,0.015625 0.3125,0.046875 0.10156,0.023437 0.20312,0.058594 0.29688,0.10938 v 0.40625 C 1.73435,-1.531235 1.6406,-1.578115 1.54685,-1.609355 1.4531,-1.640595 1.35154,-1.65623 1.24997,-1.65623 c -0.17969,0 -0.32031,0.0625 -0.42188,0.1875 -0.10547,0.11719 -0.15625,0.27344 -0.15625,0.46875 0,0.21094 0.050781,0.375 0.15625,0.5 0.10156,0.11719 0.24219,0.17188 0.42188,0.17188 0.10156,0 0.20312,-0.015625 0.29688,-0.046875 0.09376,-0.03125 0.1875,-0.078125 0.28125,-0.14062 z"
         id="path2" />
    </symbol>
    <symbol
       id="f"
       overflow="visible">
      <path
         d="M 1.3438,-1.0938 C 1.300831,-1.113331 1.257862,-1.12505 1.2188,-1.12505 1.175831,-1.132862 1.132862,-1.140675 1.0938,-1.140675 c -0.125,0 -0.22656,0.042969 -0.29688,0.125 -0.0625,0.074219 -0.09375,0.18359 -0.09375,0.32812 v 0.6875 H 0.23442 v -1.5 h 0.46875 v 0.25 c 0.0625,-0.09375 0.12891,-0.16016 0.20312,-0.20312 C 0.988321,-1.503956 1.08598,-1.5313 1.20317,-1.5313 h 0.046875 c 0.019531,0 0.050781,0.00781 0.09375,0.015625 z"
         id="path5" />
    </symbol>
    <symbol
       id="a"
       overflow="visible">
      <path
         d="m 1.7188,-0.75 v 0.14062 H 0.6094 c 0.007813,0.10547 0.046875,0.1875 0.10938,0.25 0.070312,0.054687 0.17188,0.078125 0.29688,0.078125 0.10156,0 0.20703,-0.015625 0.3125,-0.046875 0.10156,-0.03125 0.21094,-0.070313 0.32812,-0.125 v 0.35938 C 1.53909,-0.050781 1.42581,-0.019531 1.31253,0 1.19534,0.019531 1.08206,0.03125 0.96878,0.03125 c -0.27344,0 -0.48047,-0.066406 -0.625,-0.20312 -0.14844,-0.13281 -0.21875,-0.32812 -0.21875,-0.57812 0,-0.23828 0.070312,-0.42578 0.21875,-0.5625 0.14453,-0.14453 0.34766,-0.21875 0.60938,-0.21875 0.22656,0 0.41016,0.074219 0.54688,0.21875 0.14453,0.13672 0.21875,0.32422 0.21875,0.5625 z M 1.23442,-0.90625 C 1.23442,-1 1.207076,-1.07031 1.156295,-1.125 c -0.054688,-0.0625 -0.125,-0.09375 -0.21875,-0.09375 -0.085938,0 -0.15625,0.027344 -0.21875,0.078125 -0.0625,0.054687 -0.10156,0.13281 -0.10938,0.23438 z"
         id="path8" />
    </symbol>
    <symbol
       id="e"
       overflow="visible">
      <path
         d="m 0.90625,-0.67188 c -0.10547,0 -0.18359,0.015625 -0.23438,0.046875 -0.054687,0.03125 -0.078125,0.085938 -0.078125,0.15625 0,0.0625 0.019531,0.10938 0.0625,0.14062 0.039062,0.03125 0.097656,0.046875 0.17188,0.046875 0.09375,0 0.16406,-0.03125 0.21875,-0.09375 0.0625,-0.0625 0.09375,-0.14453 0.09375,-0.25 V -0.671885 Z M 1.625,-0.85938 V 0 H 1.14062 V -0.21875 C 1.07812,-0.125 1.0039,-0.05469 0.92187,-0.01563 0.847651,0.01562 0.7539,0.031245 0.64062,0.031245 c -0.15625,0 -0.28125,-0.039062 -0.375,-0.125 -0.09375,-0.09375 -0.14062,-0.21094 -0.14062,-0.35938 0,-0.17578 0.054688,-0.30078 0.17188,-0.375 0.125,-0.082031 0.3125,-0.125 0.5625,-0.125 H 1.14063 V -1.00001 c 0,-0.070312 -0.03125,-0.125 -0.09375,-0.15625 -0.054687,-0.039062 -0.14062,-0.0625 -0.26562,-0.0625 -0.10547,0 -0.20312,0.011719 -0.29688,0.03125 C 0.398443,-1.164072 0.32032,-1.132822 0.25,-1.09376 v -0.35938 c 0.10156,-0.03125 0.20703,-0.050781 0.3125,-0.0625 0.10156,-0.00781 0.20312,-0.015625 0.29688,-0.015625 0.26953,0 0.46094,0.054688 0.57812,0.15625 0.125,0.10547 0.1875,0.27734 0.1875,0.51562 z"
         id="path11" />
    </symbol>
    <symbol
       id="d"
       overflow="visible">
      <path
         d="m 0.75,-1.9219 v 0.42188 h 0.5 v 0.34375 h -0.5 v 0.64062 c 0,0.0625 0.007812,0.10938 0.03125,0.14062 0.03125,0.023438 0.085938,0.03125 0.17188,0.03125 h 0.25 V -3e-5 H 0.79688 C 0.60938,-3e-5 0.47266,-0.035186 0.39063,-0.10941 0.316411,-0.191441 0.28125,-0.32816 0.28125,-0.51566 v -0.64062 h -0.25 v -0.34375 h 0.25 v -0.42188 z"
         id="path14" />
    </symbol>
    <symbol
       id="k"
       overflow="visible">
      <path
         d="M 1.25,-1.2812 V -2.07808 H 1.73438 V 2e-5 H 1.25 V -0.21873 C 1.175781,-0.12498 1.09766,-0.05467 1.01562,-0.01561 0.941401,0.01564 0.85156,0.031265 0.75,0.031265 c -0.17969,0 -0.32812,-0.070312 -0.45312,-0.21875 -0.11719,-0.14453 -0.17188,-0.33203 -0.17188,-0.5625 0,-0.22656 0.054688,-0.41406 0.17188,-0.5625 0.125,-0.14453 0.27344,-0.21875 0.45312,-0.21875 0.10156,0 0.19141,0.023438 0.26562,0.0625 0.082031,0.042969 0.16016,0.10547 0.23438,0.1875 z m -0.3125,0.96875 c 0.09375,0 0.16406,-0.035156 0.21875,-0.10938 C 1.21875,-0.492143 1.25,-0.60152 1.25,-0.74995 c 0,-0.13281 -0.03125,-0.23828 -0.09375,-0.3125 -0.054688,-0.082031 -0.125,-0.125 -0.21875,-0.125 -0.10547,0 -0.18359,0.042969 -0.23438,0.125 -0.054687,0.074219 -0.078125,0.17969 -0.078125,0.3125 0,0.14844 0.023438,0.25781 0.078125,0.32812 0.050781,0.074219 0.12891,0.10938 0.23438,0.10938 z"
         id="path17" />
    </symbol>
    <symbol
       id="j"
       overflow="visible">
      <path
         d="m 1.0312,-0.3125 c 0.09375,0 0.16406,-0.035156 0.21875,-0.10938 0.0625,-0.070313 0.09375,-0.17969 0.09375,-0.32812 0,-0.13281 -0.03125,-0.23828 -0.09375,-0.3125 -0.054688,-0.082031 -0.125,-0.125 -0.21875,-0.125 -0.10547,0 -0.1875,0.042969 -0.25,0.125 -0.054688,0.074219 -0.078125,0.17969 -0.078125,0.3125 0,0.14844 0.023437,0.25781 0.078125,0.32812 0.0625,0.074219 0.14453,0.10938 0.25,0.10938 z M 0.70308,-1.28125 c 0.070313,-0.082031 0.14453,-0.14453 0.21875,-0.1875 0.082031,-0.039062 0.17578,-0.0625 0.28125,-0.0625 0.1875,0 0.33594,0.074219 0.45312,0.21875 0.11328,0.14844 0.17188,0.33594 0.17188,0.5625 0,0.23047 -0.058594,0.41797 -0.17188,0.5625 -0.11719,0.14844 -0.26562,0.21875 -0.45312,0.21875 -0.10547,0 -0.19922,-0.015625 -0.28125,-0.046875 -0.074219,-0.039062 -0.14844,-0.10938 -0.21875,-0.20312 V 5e-6 H 0.23433 v -2.0781 h 0.46875 z"
         id="path20" />
    </symbol>
    <symbol
       id="i"
       overflow="visible">
      <path
         d="M 0.03125,-1.5 H 0.51563 L 0.90625,-0.4844 1.25,-1.5 h 0.48438 l -0.625,1.6406 C 1.04688,0.30466 0.96876,0.42185 0.875,0.48435 0.789062,0.554663 0.67969,0.59373 0.54688,0.59373 H 0.28126 v -0.3125 h 0.14062 c 0.082031,0 0.14062,-0.015625 0.17188,-0.046875 0.039062,-0.023437 0.070312,-0.070313 0.09375,-0.14062 l 0.015625,-0.03125 z"
         id="path23" />
    </symbol>
    <symbol
       id="c"
       overflow="visible">
      <path
         d="m 1.3906,-1.4531 v 0.375 C 1.29685,-1.128881 1.19529,-1.164037 1.09372,-1.18748 0.99997,-1.207011 0.91013,-1.21873 0.8281,-1.21873 c -0.085937,0 -0.15234,0.015625 -0.20312,0.046875 -0.042969,0.023437 -0.0625,0.054687 -0.0625,0.09375 0,0.042969 0.015625,0.074219 0.046875,0.09375 0.03125,0.023437 0.09375,0.039063 0.1875,0.046875 l 0.078125,0.015625 c 0.25,0.03125 0.41406,0.085937 0.5,0.15625 0.082031,0.0625 0.125,0.17188 0.125,0.32812 0,0.15624 -0.0625,0.27734 -0.1875,0.35938 -0.11719,0.074219 -0.28906,0.10938 -0.51562,0.10938 -0.10547,0 -0.21094,-0.011719 -0.3125,-0.03125 -0.10547,-0.0078125 -0.21094,-0.03125 -0.3125,-0.0625 v -0.35938 c 0.09375,0.054687 0.1875,0.089844 0.28125,0.10938 0.10156,0.023438 0.20703,0.03125 0.3125,0.03125 0.09375,0 0.16016,-0.007812 0.20312,-0.03125 0.050781,-0.03125 0.078125,-0.070312 0.078125,-0.125 0,-0.039062 -0.015625,-0.070312 -0.046875,-0.09375 C 0.96873,-0.550756 0.89842,-0.566381 0.79686,-0.5781 L 0.718735,-0.593725 c -0.21875,-0.019531 -0.37109,-0.066406 -0.45312,-0.14062 -0.085937,-0.070313 -0.125,-0.17969 -0.125,-0.32812 0,-0.15625 0.050781,-0.26953 0.15625,-0.34375 0.11328,-0.082031 0.28125,-0.125 0.5,-0.125 0.09375,0 0.1875,0.011719 0.28125,0.03125 0.10156,0.011719 0.20703,0.027344 0.3125,0.046875 z"
         id="path26" />
    </symbol>
    <symbol
       id="b"
       overflow="visible">
      <path
         d="M 1.7344,-0.90625 V 0 H 1.25002 v -0.6875 c 0,-0.13281 -0.00781,-0.22266 -0.015625,-0.26562 0,-0.050781 -0.00781,-0.09375 -0.015625,-0.125 -0.023438,-0.03125 -0.046875,-0.050781 -0.078125,-0.0625 -0.03125,-0.019531 -0.070313,-0.03125 -0.10938,-0.03125 -0.10547,0 -0.1875,0.042969 -0.25,0.125 -0.054688,0.074219 -0.078125,0.17969 -0.078125,0.3125 V 1e-5 H 0.23439 v -2.0781 h 0.46875 v 0.79688 c 0.070313,-0.082031 0.14844,-0.14453 0.23438,-0.1875 0.082031,-0.039062 0.17188,-0.0625 0.26562,-0.0625 0.17578,0 0.30469,0.054688 0.39062,0.15625 0.09375,0.10547 0.14062,0.26172 0.14062,0.46875 z"
         id="path29" />
    </symbol>
    <symbol
       id="h"
       overflow="visible">
      <path
         d="M 1.7344,-0.90625 V 0 H 1.25002 v -0.70312 c 0,-0.125 -0.00781,-0.20703 -0.015625,-0.25 0,-0.050781 -0.00781,-0.09375 -0.015625,-0.125 -0.023438,-0.03125 -0.046875,-0.050781 -0.078125,-0.0625 -0.03125,-0.019531 -0.070313,-0.03125 -0.10938,-0.03125 -0.10547,0 -0.1875,0.042969 -0.25,0.125 -0.054688,0.074219 -0.078125,0.17969 -0.078125,0.3125 V 1e-5 H 0.23439 v -1.5 h 0.46875 v 0.21875 c 0.070313,-0.082031 0.14844,-0.14453 0.23438,-0.1875 0.082031,-0.039062 0.17188,-0.0625 0.26562,-0.0625 0.17578,0 0.30469,0.054688 0.39062,0.15625 0.09375,0.10547 0.14062,0.26172 0.14062,0.46875 z"
         id="path32" />
    </symbol>
    <symbol
       id="u"
       overflow="visible">
      <path
         d="m 0.23438,-2.0781 h 0.46875 v 1.125 l 0.54688,-0.54688 h 0.5625 L 1.07813,-0.81248 1.87501,2e-5 H 1.29689 l -0.59375,-0.625 V 2e-5 H 0.23439 Z"
         id="path35" />
    </symbol>
    <symbol
       id="t"
       overflow="visible">
      <path
         d="M 0.23438,-1.5 H 0.70313 V 0 H 0.23438 Z m 0,-0.57812 H 0.70313 V -1.6875 H 0.23438 Z"
         id="path38" />
    </symbol>
    <symbol
       id="s"
       overflow="visible">
      <path
         d="M 1.25,-0.25 C 1.175781,-0.164062 1.09766,-0.10156 1.01562,-0.0625 0.941401,-0.019531 0.85156,0 0.75,0 0.57031,0 0.42188,-0.070312 0.29688,-0.21875 0.17969,-0.36328 0.125,-0.54687 0.125,-0.76563 c 0,-0.21876 0.054688,-0.39844 0.17188,-0.54688 0.125,-0.14453 0.27344,-0.21875 0.45312,-0.21875 0.10156,0 0.19141,0.023438 0.26562,0.0625 0.082031,0.042969 0.16016,0.10547 0.23438,0.1875 v -0.21875 h 0.48438 v 1.3438 C 1.73438,0.08207 1.656255,0.26567 1.5,0.39067 1.34375,0.52348 1.125,0.59379 0.84375,0.59379 0.75,0.59379 0.65625,0.582071 0.5625,0.56254 0.476562,0.550821 0.39453,0.53129 0.3125,0.50004 v -0.375 c 0.082031,0.050781 0.16016,0.085938 0.23438,0.10938 0.082031,0.03125 0.16406,0.046875 0.25,0.046875 0.15625,0 0.26953,-0.039062 0.34375,-0.10938 0.070313,-0.074219 0.10938,-0.17969 0.10938,-0.32812 z M 0.9375,-1.1875 c -0.10547,0 -0.18359,0.039062 -0.23438,0.10938 -0.054687,0.074219 -0.078125,0.17969 -0.078125,0.3125 0,0.13672 0.023438,0.24219 0.078125,0.3125 0.050781,0.074219 0.12891,0.10938 0.23438,0.10938 0.09375,0 0.16406,-0.035156 0.21875,-0.10938 C 1.21875,-0.523433 1.25,-0.6289 1.25,-0.76562 1.25,-0.89843 1.21875,-1.0039 1.15625,-1.07812 1.101562,-1.148433 1.03125,-1.1875 0.9375,-1.1875 Z"
         id="path41" />
    </symbol>
    <symbol
       id="r"
       overflow="visible">
      <path
         d="m 1.2188,-2.0781 v 0.3125 H 0.95318 c -0.074219,0 -0.125,0.015625 -0.15625,0.046875 -0.023437,0.023438 -0.03125,0.0625 -0.03125,0.125 v 0.09375 h 0.40625 v 0.34375 H 0.76568 v 1.1562 H 0.29693 v -1.1562 h -0.25 v -0.34375 h 0.25 v -0.09375 c 0,-0.16406 0.039063,-0.28516 0.125,-0.35938 0.09375,-0.082031 0.23438,-0.125 0.42188,-0.125 z"
         id="path44" />
    </symbol>
    <symbol
       id="g"
       overflow="visible">
      <path
         d="m 0.9375,-1.1875 c -0.10547,0 -0.1875,0.039062 -0.25,0.10938 -0.054688,0.074219 -0.078125,0.18359 -0.078125,0.32812 0,0.14844 0.023437,0.26172 0.078125,0.34375 0.0625,0.074219 0.14453,0.10938 0.25,0.10938 0.10156,0 0.17969,-0.035156 0.23438,-0.10938 0.0625,-0.082031 0.09375,-0.19531 0.09375,-0.34375 0,-0.14453 -0.03125,-0.25391 -0.09375,-0.32812 C 1.117193,-1.148433 1.03907,-1.1875 0.9375,-1.1875 Z m 0,-0.34375 c 0.25781,0 0.46094,0.074219 0.60938,0.21875 0.14453,0.13672 0.21875,0.32422 0.21875,0.5625 0,0.25 -0.074219,0.44531 -0.21875,0.57812 C 1.39844,-0.03516 1.19532,0.03124 0.9375,0.03124 0.67578,0.03124 0.47266,-0.035166 0.32812,-0.17188 0.1914,-0.30469 0.125,-0.5 0.125,-0.75 c 0,-0.23828 0.066406,-0.42578 0.20312,-0.5625 0.14453,-0.14453 0.34766,-0.21875 0.60938,-0.21875 z"
         id="path47" />
    </symbol>
    <symbol
       id="q"
       overflow="visible">
      <path
         d="m 1.6094,-1.25 c 0.0625,-0.09375 0.13281,-0.16016 0.21875,-0.20312 0.082031,-0.050781 0.17578,-0.078125 0.28125,-0.078125 0.16406,0 0.29688,0.054688 0.39062,0.15625 0.09375,0.10547 0.14062,0.26172 0.14062,0.46875 V 5e-6 H 2.15626 v -0.78125 -0.03125 -0.0625 c 0,-0.10156 -0.015625,-0.17578 -0.046875,-0.21875 -0.03125,-0.050781 -0.085937,-0.078125 -0.15625,-0.078125 -0.085937,0 -0.15234,0.039063 -0.20312,0.10938 C 1.695327,-0.988271 1.67189,-0.8789 1.67189,-0.73437 V 1e-5 H 1.18751 v -0.78125 c 0,-0.16406 -0.015625,-0.26953 -0.046875,-0.3125 -0.023437,-0.050781 -0.070313,-0.078125 -0.14062,-0.078125 -0.09375,0 -0.16797,0.042969 -0.21875,0.125 -0.054688,0.074219 -0.078125,0.17969 -0.078125,0.3125 V 1.5e-5 H 0.23439 v -1.5 h 0.46875 v 0.21875 c 0.0625,-0.082031 0.12891,-0.14453 0.20312,-0.1875 0.082031,-0.039062 0.16406,-0.0625 0.25,-0.0625 0.10156,0 0.19141,0.027344 0.26562,0.078125 0.082031,0.054687 0.14453,0.12109 0.1875,0.20312 z"
         id="path50" />
    </symbol>
    <symbol
       id="p"
       overflow="visible">
      <path
         d="m 0.25,-2 h 0.57812 l 0.71875,1.375 V -2 H 2.03125 V 0 H 1.46875 L 0.73437,-1.375 V 0 H 0.24999 Z"
         id="path53" />
    </symbol>
    <symbol
       id="o"
       overflow="visible">
      <path
         d="M 0.21875,-0.57812 V -1.5 H 0.6875 v 0.15625 0.3125 0.23438 0.26562 c 0.007812,0.054688 0.023438,0.089844 0.046875,0.10938 0.019531,0.03125 0.046875,0.058594 0.078125,0.078125 0.03125,0.011719 0.066406,0.015625 0.10938,0.015625 0.09375,0 0.16406,-0.035156 0.21875,-0.10938 0.0625,-0.070312 0.09375,-0.17578 0.09375,-0.3125 V -1.5 H 1.71876 V 0 H 1.23438 V -0.21875 C 1.160161,-0.125 1.08204,-0.05469 1,-0.01563 0.925781,0.01562 0.84375,0.031245 0.75,0.031245 c -0.17969,0 -0.3125,-0.050781 -0.40625,-0.15625 -0.085938,-0.10156 -0.125,-0.25391 -0.125,-0.45312 z"
         id="path56" />
    </symbol>
    <symbol
       id="n"
       overflow="visible">
      <path
         d="m 0.25,-2 h 0.85938 c 0.25,0 0.44141,0.058594 0.57812,0.17188 0.13281,0.11719 0.20312,0.27734 0.20312,0.48438 0,0.21094 -0.070313,0.37109 -0.20312,0.48438 -0.13672,0.11719 -0.32812,0.17188 -0.57812,0.17188 H 0.76563 V 2e-5 H 0.25001 Z m 0.51562,0.375 v 0.5625 h 0.28125 c 0.10156,0 0.17969,-0.019531 0.23438,-0.0625 0.050781,-0.050781 0.078125,-0.125 0.078125,-0.21875 0,-0.09375 -0.027344,-0.16016 -0.078125,-0.20312 C 1.226562,-1.597651 1.14844,-1.624995 1.04687,-1.624995 Z"
         id="path59" />
    </symbol>
    <symbol
       id="m"
       overflow="visible">
      <path
         d="m 0.23438,-1.5 h 0.46875 v 1.4688 c 0,0.20703 -0.046875,0.36328 -0.14062,0.46875 C 0.46876,0.53911 0.32813,0.5938 0.14063,0.5938 H -0.09375 V 0.2813 h 0.078125 c 0.09375,0 0.15625,-0.023438 0.1875,-0.0625 0.039063,-0.042969 0.0625,-0.125 0.0625,-0.25 z m 0,-0.57812 H 0.70313 V -1.6875 H 0.23438 Z"
         id="path62" />
    </symbol>
    <symbol
       id="l"
       overflow="visible">
      <path
         d="m 1.4375,-1.4531 v 0.39062 C 1.375,-1.101542 1.30469,-1.132792 1.23438,-1.15623 1.17188,-1.175761 1.10157,-1.18748 1.03126,-1.18748 c -0.125,0 -0.23047,0.042969 -0.3125,0.125 -0.074219,0.074219 -0.10938,0.17969 -0.10938,0.3125 0,0.14844 0.035156,0.26172 0.10938,0.34375 0.082031,0.074219 0.1875,0.10938 0.3125,0.10938 0.082031,0 0.15625,-0.007813 0.21875,-0.03125 0.070312,-0.03125 0.13281,-0.066406 0.1875,-0.10938 v 0.39062 C 1.363291,-0.01561 1.28517,0.003921 1.20313,0.01564 1.128911,0.0234525 1.05469,0.031265 0.98438,0.031265 c -0.27344,0 -0.48438,-0.066406 -0.64062,-0.20312 -0.14844,-0.13281 -0.21875,-0.32812 -0.21875,-0.57812 0,-0.23828 0.070312,-0.42578 0.21875,-0.5625 0.15625,-0.14453 0.36719,-0.21875 0.64062,-0.21875 0.070313,0 0.14453,0.011719 0.21875,0.03125 0.082031,0.011719 0.16016,0.027344 0.23438,0.046875 z"
         id="path65" />
    </symbol>
  </defs>
  <g
     id="g162"
     transform="translate(-395.55096,294.24696)">
    <g
       id="g2421"
       inkscape:export-filename="C:\Users\dave\OneDrive\Documents\work\caballus\CenterOnMe.png"
       inkscape:export-xdpi="3.6162896"
       inkscape:export-ydpi="3.6162896">
      <circle
         style="opacity:1;fill:#ffffff;fill-opacity:1;stroke:none;stroke-width:1.33795"
         id="path1912"
         cx="806.69061"
         cy="116.89269"
         r="411.13965" />
      <g
         id="g1766"
         transform="translate(456.66583,-163.13206)">
        <path
           d="m 491.53,280 c 0,7.6016 -0.54688,15.258 -1.5312,22.805 0.32812,-2.4062 0.65625,-4.8672 0.98438,-7.2734 -2.0234,14.656 -5.9062,28.984 -11.594,42.602 0.92969,-2.1875 1.8594,-4.375 2.7344,-6.5078 -5.7422,13.508 -13.18,26.25 -22.148,37.898 1.4219,-1.8594 2.8438,-3.6641 4.2656,-5.5234 -8.8047,11.32 -18.977,21.492 -30.352,30.352 1.8594,-1.4219 3.6641,-2.8438 5.5234,-4.2656 -11.648,8.9688 -24.336,16.406 -37.898,22.148 2.1875,-0.92969 4.375,-1.8594 6.5078,-2.7344 -13.672,5.6875 -27.945,9.5703 -42.602,11.594 2.4062,-0.32812 4.8672,-0.65625 7.2734,-0.98438 -15.148,2.0234 -30.461,2.0234 -45.609,0 2.4062,0.32812 4.8672,0.65625 7.2734,0.98438 -14.656,-2.0234 -28.984,-5.9062 -42.602,-11.594 2.1875,0.92969 4.375,1.8594 6.5078,2.7344 -13.508,-5.7422 -26.25,-13.18 -37.898,-22.148 1.8594,1.4219 3.6641,2.8438 5.5234,4.2656 -11.32,-8.8047 -21.492,-18.977 -30.352,-30.352 1.4219,1.8594 2.8438,3.6641 4.2656,5.5234 -8.9688,-11.648 -16.406,-24.336 -22.148,-37.898 0.92969,2.1875 1.8594,4.375 2.7344,6.5078 -5.6875,-13.672 -9.5703,-27.945 -11.594,-42.602 0.32812,2.4062 0.65625,4.8672 0.98438,7.2734 -2.0234,-15.148 -2.0234,-30.461 0,-45.609 -0.32812,2.4062 -0.65625,4.8672 -0.98438,7.2734 2.0234,-14.656 5.9062,-28.984 11.594,-42.602 -0.92969,2.1875 -1.8594,4.375 -2.7344,6.5078 5.7422,-13.508 13.18,-26.25 22.148,-37.898 -1.4219,1.8594 -2.8438,3.6641 -4.2656,5.5234 8.8047,-11.32 18.977,-21.492 30.352,-30.352 -1.8594,1.4219 -3.6641,2.8438 -5.5234,4.2656 11.648,-8.9688 24.336,-16.406 37.898,-22.148 -2.1875,0.92969 -4.375,1.8594 -6.5078,2.7344 13.672,-5.6875 27.945,-9.5703 42.602,-11.594 -2.4062,0.32812 -4.8672,0.65625 -7.2734,0.98438 15.148,-2.0234 30.461,-2.0234 45.609,0 -2.4062,-0.32812 -4.8672,-0.65625 -7.2734,-0.98438 14.656,2.0234 28.984,5.9062 42.602,11.594 -2.1875,-0.92969 -4.375,-1.8594 -6.5078,-2.7344 13.508,5.7422 26.25,13.18 37.898,22.148 -1.8594,-1.4219 -3.6641,-2.8438 -5.5234,-4.2656 11.32,8.8047 21.492,18.977 30.352,30.352 -1.4219,-1.8594 -2.8438,-3.6641 -4.2656,-5.5234 8.9688,11.648 16.406,24.336 22.148,37.898 -0.92969,-2.1875 -1.8594,-4.375 -2.7344,-6.5078 5.6875,13.672 9.5703,27.945 11.594,42.602 -0.32812,-2.4062 -0.65625,-4.8672 -0.98438,-7.2734 1.0391,7.5469 1.5312,15.203 1.5312,22.805 0,7 3.0625,14.383 7.9844,19.359 4.7578,4.7578 12.523,8.3125 19.359,7.9844 7.0547,-0.32812 14.383,-2.625 19.359,-7.9844 4.9219,-5.3594 8.0391,-11.922 7.9844,-19.359 -0.10938,-39.539 -12.086,-79.68 -35.164,-111.95 -6.1797,-8.6406 -12.852,-17.117 -20.289,-24.773 -7.4922,-7.7109 -15.695,-14.438 -24.227,-20.945 -15.477,-11.812 -32.758,-20.562 -50.969,-27.234 -18.812,-6.8906 -39.047,-10.445 -59.008,-11.156 -20.016,-0.76562 -40.633,1.75 -59.883,7.2188 -37.133,10.5 -71.914,32.484 -96.469,62.344 -6.7812,8.2578 -13.234,16.898 -18.758,26.086 -5.5781,9.2969 -10.008,19.141 -14.109,29.148 -7.5469,18.43 -11.484,38.117 -13.016,57.914 -3.1172,39.539 7,80.609 27.508,114.52 19.906,32.867 49.875,60.648 85.039,76.508 9.9531,4.4844 20.07,8.5312 30.57,11.484 10.773,3.0078 21.766,4.7031 32.812,6.0156 20.289,2.3516 40.961,0.82031 60.922,-3.2266 19.031,-3.8828 37.734,-11.156 54.688,-20.562 16.68,-9.2969 32.266,-21.328 45.445,-35.109 26.906,-28.055 46.156,-64.586 52.062,-103.2 1.6953,-10.992 2.8984,-21.93 2.9531,-33.031 0,-7 -3.0625,-14.383 -7.9844,-19.359 -4.7578,-4.7578 -12.523,-8.3125 -19.359,-7.9844 -7.0547,0.32812 -14.383,2.625 -19.359,7.9844 -4.9766,5.3047 -8.0391,11.867 -8.0938,19.305 z"
           id="path70" />
        <path
           d="M 377.34,111.12 V 52.932 44.6195 c 0,-7 -3.0625,-14.383 -7.9844,-19.359 -4.7578,-4.7578 -12.523,-8.3125 -19.359,-7.9844 -7.0547,0.32812 -14.383,2.625 -19.359,7.9844 -4.9219,5.3594 -7.9844,11.922 -7.9844,19.359 v 58.188 8.3125 c 0,7 3.0625,14.383 7.9844,19.359 4.7578,4.7578 12.523,8.3125 19.359,7.9844 7.0547,-0.32812 14.383,-2.625 19.359,-7.9844 4.8672,-5.4141 7.9844,-11.977 7.9844,-19.359 z"
           id="path72" />
        <path
           d="m 377.34,515.43 v -58.188 -8.3125 c 0,-7 -3.0625,-14.383 -7.9844,-19.359 -4.7578,-4.7578 -12.523,-8.3125 -19.359,-7.9844 -7.0547,0.32812 -14.383,2.625 -19.359,7.9844 -4.9219,5.3594 -7.9844,11.922 -7.9844,19.359 v 58.188 8.3125 c 0,7 3.0625,14.383 7.9844,19.359 4.7578,4.7578 12.523,8.3125 19.359,7.9844 7.0547,-0.32813 14.383,-2.625 19.359,-7.9844 4.8672,-5.3594 7.9844,-11.977 7.9844,-19.359 z"
           id="path74" />
        <path
           d="m 181.12,252.66 h -58.188 -8.3125 c -7,0 -14.383,3.0625 -19.359,7.9844 -4.7578,4.7578 -8.3125,12.523 -7.9844,19.359 0.32812,7.0547 2.625,14.383 7.9844,19.359 5.3594,4.9219 11.922,7.9844 19.359,7.9844 h 58.188 8.3125 c 7,0 14.383,-3.0625 19.359,-7.9844 4.7578,-4.7578 8.3125,-12.523 7.9844,-19.359 -0.32812,-7.0547 -2.625,-14.383 -7.9844,-19.359 -5.4141,-4.8672 -11.977,-7.9844 -19.359,-7.9844 z"
           id="path76" />
        <path
           d="m 585.43,252.66 h -58.188 -8.3125 c -7,0 -14.383,3.0625 -19.359,7.9844 -4.7578,4.7578 -8.3125,12.523 -7.9844,19.359 0.32812,7.0547 2.625,14.383 7.9844,19.359 5.3594,4.9219 11.922,7.9844 19.359,7.9844 h 58.188 8.3125 c 7,0 14.383,-3.0625 19.359,-7.9844 4.7578,-4.7578 8.3125,-12.523 7.9844,-19.359 -0.32813,-7.0547 -2.625,-14.383 -7.9844,-19.359 -5.3594,-4.8672 -11.977,-7.9844 -19.359,-7.9844 z"
           id="path78" />
        <path
           d="m 420.1124,299.3588 c 4.8672,-5.3047 8.0391,-11.922 7.9844,-19.359 -0.10938,-15.094 -4.375,-31.117 -13.289,-43.422 -2.7344,-3.7734 -5.5781,-7.6562 -8.8594,-11.047 -3.4453,-3.5547 -7.4375,-6.5625 -11.375,-9.5156 -5.9609,-4.4844 -12.742,-7.4375 -19.742,-10.008 -14.328,-5.3047 -31.555,-5.3594 -46.211,-1.1484 -14.109,4.0469 -28.164,12.414 -37.461,23.898 -2.8984,3.5547 -5.7969,7.1641 -8.2031,11.102 -2.5156,4.1562 -4.375,8.75 -6.1797,13.289 -2.9531,7.3281 -4.1562,15.148 -4.7578,23.023 -1.0938,14.875 3.1172,30.898 10.773,43.641 7.4922,12.523 19.086,23.953 32.484,30.023 4.3203,1.9688 8.75,3.9375 13.344,5.25 4.9766,1.4219 10.172,2.0234 15.258,2.5703 7.7109,0.875 15.531,-0.0547 23.133,-1.5312 7.9297,-1.5312 15.859,-4.8672 22.805,-8.9688 6.7812,-4.0469 13.453,-9.2969 18.539,-15.422 3.2812,-3.9922 6.6172,-8.0938 9.1875,-12.578 2.5156,-4.3203 4.4297,-9.0781 6.1797,-13.727 3.0625,-7.9844 4.2656,-17.008 4.375,-25.539 0.0547,-7 -3.0625,-14.438 -7.9844,-19.359 -28.70455,0.55312 -48.71674,15.46524 -2e-4,38.8287 z"
           id="path80"
           sodipodi:nodetypes="cccccccccccccsccccccccc" />
        <path
           d="m 420.1124,299.3588 c 4.8672,-5.3047 8.0391,-11.922 7.9844,-19.359 -0.10938,-15.094 -4.375,-31.117 -13.289,-43.422 -2.7344,-3.7734 -5.5781,-7.6562 -8.8594,-11.047 -3.4453,-3.5547 -7.4375,-6.5625 -11.375,-9.5156 -5.9609,-4.4844 -12.742,-7.4375 -19.742,-10.008 -14.328,-5.3047 -31.555,-5.3594 -46.211,-1.1484 -14.109,4.0469 -28.164,12.414 -37.461,23.898 -2.8984,3.5547 -5.7969,7.1641 -8.2031,11.102 -2.5156,4.1562 -4.375,8.75 -6.1797,13.289 -2.9531,7.3281 -4.1562,15.148 -4.7578,23.023 -1.0938,14.875 3.1172,30.898 10.773,43.641 7.4922,12.523 19.086,23.953 32.484,30.023 4.3203,1.9688 8.75,3.9375 13.344,5.25 4.9766,1.4219 10.172,2.0234 15.258,2.5703 7.7109,0.875 15.531,-0.0547 23.133,-1.5312 7.9297,-1.5312 15.859,-4.8672 22.805,-8.9688 6.7812,-4.0469 13.453,-9.2969 18.539,-15.422 3.2812,-3.9922 6.6172,-8.0938 9.1875,-12.578 2.5156,-4.3203 4.4297,-9.0781 6.1797,-13.727 3.0625,-7.9844 4.2656,-17.008 4.375,-25.539 0.0547,-7 -3.0625,-14.438 -7.9844,-19.359 -28.70455,0.55312 -48.71674,15.46524 -2e-4,38.8287 z"
           id="path1367"
           sodipodi:nodetypes="cccccccccccccsccccccccc" />
      </g>
    </g>
  </g>
</svg>
