<svg
    width="40"
    height="36"
    viewBox="0 0 40 36"
    fill="none"
    xmlns="http://www.w3.org/2000/svg"
>
    <path
        d="M33.1243 0C33.2983 0 33.3679 0.279612 33.2287 1.04854L33.9246 0.419417L33.9594 2.65631C34.7945 3.32039 35.2816 5.45243 35.9079 6.85049C36.4646 7.40971 36.6734 8.07379 36.4994 9.08738C36.221 9.5068 35.7687 9.75146 35.2816 9.78641C34.6901 9.78641 34.1682 9.33204 34.0638 8.52816C33.9942 8.56311 33.8898 8.56311 33.8202 8.56311C33.2983 8.56311 32.5328 8.03883 31.489 6.78058C31.0367 6.95534 30.6539 7.33981 30.4799 8.17864C30.1668 9.75146 30.6539 10.765 31.315 12.1631C32.0457 13.666 32.8112 15.099 32.498 17.0913C33.0199 17.1612 33.5071 17.1961 34.029 17.1961C34.7597 17.1961 35.4903 17.1262 36.221 16.9515C36.395 16.9515 36.569 16.9165 36.743 16.9165C37.0909 16.9165 37.4388 16.9515 37.7868 17.0913C38.1695 17.2311 38.4479 17.5456 38.5523 17.9301C38.761 19.1884 39.2482 20.3767 39.9788 21.3903C40.0484 22.1243 39.944 22.8583 39.7005 23.5573L39.5265 24.0117L39.4569 24.9903C39.3873 25.8291 39.1786 26.5631 38.761 26.5631C38.5175 26.5631 38.2043 26.2835 37.7868 25.6194C37.6824 24.9204 37.7868 24.1864 38.0999 23.5573L38.5871 23.3126C38.5871 22.4039 38.4479 21.4602 38.1695 20.5864C37.9956 19.8175 37.5084 19.1884 36.8125 18.8388L36.1167 18.7689L36.5342 19.8175C36.6386 20.9359 36.7777 21.9146 37.1605 22.4388C37.3693 23.2078 37.2649 23.6971 36.8821 23.8718C36.569 24.0117 36.2906 24.5709 36.0123 25.6893C35.7339 26.3184 35.386 26.668 34.9684 26.7379C34.5161 26.633 34.4465 25.7592 34.6205 24.3612C34.8641 24.0117 35.212 23.8019 35.6295 23.732C35.5599 22.9981 35.5947 22.299 35.7339 21.565C35.7339 20.6563 35.3164 19.8175 34.6205 19.2233C34.3073 20.0272 33.0199 20.3767 31.3846 20.5864L30.2712 19.468C28.0791 21.5651 25.6087 22.9631 23.1383 22.9631C22.3728 22.9631 21.6074 22.8233 20.9115 22.5437C20.6679 22.7184 20.5983 23.3825 20.4939 24.501C19.8328 25.4447 19.2065 27.1922 18.615 28.4155C18.1627 29.1845 18.1975 30.1282 18.6846 30.8621C19.6589 31.2466 20.4939 31.8408 21.1898 32.6097C22.1293 32.6447 22.86 32.6796 23.4863 32.9942C23.869 33.2738 24.1474 33.7282 24.1822 34.2175L23.695 34.4272L24.2517 35.1961C24.0778 35.7903 23.5211 36 22.512 36H22.1293L21.3986 34.7068L19.972 34.2874C19.4501 33.2388 18.615 32.2602 16.8405 31.3515H16.6665C15.5879 31.3515 15.0312 30.7223 15.066 29.2544C15.6575 27.8913 15.8663 26.5631 15.3444 25.3748C12.8392 23.8718 11.2734 21.4951 11.4822 18.8388C11.3082 18.8039 11.1342 18.7689 10.9603 18.7689C8.31588 18.7689 12.0389 26.1786 5.0104 26.1786C4.03616 26.1786 3.02712 26.0388 2.08767 25.8641C1.39178 25.6893 0.661095 25.4796 0 25.235C1.49616 24.9903 5.74109 23.9068 6.50656 22.1243C8.42026 19.3981 10.4383 17.3709 12.5956 16.4272C14.057 14.5748 16.6318 13.8757 19.798 13.7709C20.6679 13.7359 21.5378 13.4214 22.2337 12.932C21.7117 9.22718 24.4257 7.02524 23.9038 7.02524C23.5211 7.1301 23.1383 7.2699 22.7904 7.44466C24.0082 4.47379 27.4876 3.25049 26.1654 3.25049C25.8871 3.25049 25.6435 3.28544 25.3652 3.32039C26.6178 2.09709 28.3227 1.43301 30.0624 1.46796C30.5843 1.46796 31.141 1.53786 31.663 1.60777C32.0457 0.978641 32.7764 0 33.1243 0Z"
        fill="white"
    />
</svg>