<?xml version="1.0" encoding="UTF-8" standalone="no"?>
<svg
   data-name="Layer 1"
   viewBox="0 0 100 125"
   x="0px"
   y="0px"
   version="1.1"
   id="svg4330"
   xmlns="http://www.w3.org/2000/svg"
   xmlns:svg="http://www.w3.org/2000/svg"
   xmlns:rdf="http://www.w3.org/1999/02/22-rdf-syntax-ns#"
   xmlns:cc="http://creativecommons.org/ns#"
   xmlns:dc="http://purl.org/dc/elements/1.1/">
  <defs
     id="defs4334" />
  <title
     id="title4322">healthcare</title>
  <path
     id="path4324"
     style="fill:#ffffff;fill-opacity:1"
     d="M 6.9003906,0.88867188 C 3.5752989,0.88751783 0.91271075,3.6113138 0.98828125,6.9355469 V 35.402344 C 1.0095663,50.768059 11.207538,64.250183 25.986328,68.453125 28.463681,69.159291 30.180322,71.428192 30.1875,74 v 4.800781 c 0,10.59581 8.639165,19.891965 19.277344,20.111328 0.0013,2.8e-5 0.0026,-2.6e-5 0.0039,0 11.155177,0.2999 20.348407,-8.651977 20.34375,-19.8125 v 0.02148 c 0.04227,-3.061544 2.490953,-5.506284 5.517578,-5.654297 3.999335,8.785237 16.144123,9.960516 21.66211,1.896484 C 102.59724,67.172012 96.862454,56.00878 86.941406,55.791016 81.88788,55.623672 77.280738,58.540715 75.1875,63.119141 66.485058,63.289533 59.488281,70.355987 59.488281,79.099609 v 0.0078 0.0059 c 0.04789,5.194448 -4.110814,9.470716 -9.302734,9.572266 -5.370054,-0.008 -9.721229,-4.399824 -9.673828,-9.771485 v -0.0078 -4.716797 -0.01172 c -0.03669,-2.63546 1.691235,-4.981076 4.21875,-5.728515 l -0.02148,0.0059 C 59.529926,64.290532 69.777988,50.798668 69.8125,35.400391 V 6.9003906 C 69.812791,3.6273587 67.173288,0.98799117 63.900391,0.98828125 h -6.59961 c -2.88624,-9.1434e-4 -5.21228,2.32485645 -5.21289,5.21093755 -9.14e-4,2.8872935 2.326075,5.2138052 5.21289,5.2128902 h 2.1875 V 35.369141 C 59.205667,48.652005 48.273103,59.676194 34.929688,59.488281 21.818882,59.231962 11.310195,48.513967 11.3125,35.400391 V 11.3125 H 13.5 C 16.38624,11.311891 18.711851,8.9856907 18.710938,6.0996094 18.710327,3.2144235 16.385506,0.88928091 13.5,0.88867188 Z M 86.941406,55.791016 c 0.0034,1.12e-4 0.0064,-0.0021 0.0098,-0.002 h -0.01758 c 0.0028,6e-5 0.005,0.0019 0.0078,0.002 z m -0.300781,10.648437 c 0.984648,-1.78e-4 1.797053,0.811681 1.796875,1.796875 1.78e-4,0.984648 -0.812573,1.797053 -1.796875,1.796875 -0.98421,-4.03e-4 -1.7951,-0.812118 -1.794922,-1.796875 -1.78e-4,-0.98421 0.811058,-1.796472 1.794922,-1.796875 z" />
  <metadata
     id="metadata4336">
    <rdf:RDF>
      <cc:Work
         rdf:about="">
        <dc:title>healthcare</dc:title>
      </cc:Work>
    </rdf:RDF>
  </metadata>
</svg>
