<?xml version="1.0" encoding="UTF-8" standalone="no"?>
<svg
   version="1.1"
   x="0px"
   y="0px"
   viewBox="0 0 45 29"
   enable-background="new 0 0 100 100"
   xml:space="preserve"
   id="svg34"
   sodipodi:docname="RideHistory-b.svg"
   width="45"
   height="29"
   inkscape:version="1.1 (c68e22c387, 2021-05-23)"
   xmlns:inkscape="http://www.inkscape.org/namespaces/inkscape"
   xmlns:sodipodi="http://sodipodi.sourceforge.net/DTD/sodipodi-0.dtd"
   xmlns="http://www.w3.org/2000/svg"
   xmlns:svg="http://www.w3.org/2000/svg"><defs
     id="defs38" /><sodipodi:namedview
     id="namedview36"
     pagecolor="#ffffff"
     bordercolor="#666666"
     borderopacity="1.0"
     inkscape:pageshadow="2"
     inkscape:pageopacity="0.0"
     inkscape:pagecheckerboard="0"
     showgrid="false"
     fit-margin-top="0"
     fit-margin-left="0"
     fit-margin-right="0"
     fit-margin-bottom="0"
     inkscape:zoom="7.104"
     inkscape:cx="37.514077"
     inkscape:cy="25.408221"
     inkscape:window-width="1920"
     inkscape:window-height="1051"
     inkscape:window-x="-9"
     inkscape:window-y="-9"
     inkscape:window-maximized="1"
     inkscape:current-layer="svg34" /><circle
     cx="3.3524139"
     cy="16.768047"
     r="3.3524139"
     id="circle2"
     style="stroke-width:0.597898" /><circle
     cx="21.591291"
     cy="3.3518162"
     id="circle4"
     r="3.3518162"
     style="stroke-width:0.597898" /><circle
     cx="24.944305"
     cy="25.557747"
     r="3.3518162"
     id="circle6"
     style="stroke-width:0.597898" /><circle
     cx="41.439709"
     cy="14.021903"
     r="3.3524139"
     id="circle8"
     style="stroke-width:0.597898" /><path
     fill-rule="evenodd"
     clip-rule="evenodd"
     d="M 8.9391727,3.8211658 10.29401,5.3189002 c 0,0 0.134527,-0.1351249 0.337214,-0.3366165 0.09925,-0.1022406 0.232582,-0.2038833 0.366512,-0.3222671 0.138712,-0.1118069 0.273239,-0.2493234 0.433476,-0.3539556 0.155453,-0.1106111 0.310906,-0.2206243 0.456794,-0.3246586 0.142299,-0.1088174 0.295361,-0.1769778 0.416734,-0.251715 0.124961,-0.07115 0.2278,-0.1309397 0.300145,-0.1721946 0.07235,-0.042451 0.115395,-0.062181 0.115395,-0.062181 L 11.929858,1.5981811 c 0,5.979e-4 -0.05381,0.023916 -0.142299,0.075933 -0.08849,0.049626 -0.215841,0.1213733 -0.368903,0.2080685 -0.149475,0.090881 -0.338411,0.175782 -0.513595,0.3073196 C 10.725094,2.3156587 10.533767,2.4501857 10.342439,2.5847127 10.146329,2.7126629 9.9795152,2.8794764 9.8085164,3.0163951 9.6428987,3.1604885 9.4790746,3.2854492 9.3553097,3.409812 9.1053884,3.6567438 8.9391727,3.8211658 8.9391727,3.8211658 Z"
     id="path10"
     style="stroke-width:0.597898" /><path
     fill-rule="evenodd"
     clip-rule="evenodd"
     d="M 5.2770474,9.2207827 7.0844932,10.10328 c 0,0 0.092076,-0.1871419 0.2361697,-0.4645666 C 7.3918128,9.5000011 7.4761164,9.3373728 7.5658011,9.1645803 7.6614648,8.9953752 7.7631074,8.8142121 7.8647501,8.633049 8.0632522,8.2683312 8.2934429,7.9281273 8.4518859,7.6620627 8.6234826,7.4085539 8.7388769,7.2399467 8.7388769,7.2399467 L 7.0809058,6.1015489 c 0,0 -0.1285481,0.1871421 -0.3186796,0.468752 C 6.5882379,6.8602815 6.3347291,7.2369572 6.118888,7.6321678 6.0088747,7.8288762 5.8982634,8.0249867 5.795425,8.2091393 5.6985655,8.3962814 5.607685,8.5702697 5.5305562,8.7197442 5.3751027,9.0192911 5.2770474,9.2207827 5.2770474,9.2207827 Z"
     id="path12"
     style="stroke-width:0.597898" /><path
     fill-rule="evenodd"
     clip-rule="evenodd"
     d="m 5.4474483,14.152843 c 0.00359,-0.01076 0.00717,-0.02093 0.010762,-0.03169 0.2660646,-0.803575 0.5709928,-1.590409 0.5709928,-1.590409 l -1.876802,-0.72525 c 0.0012,0 -0.3073195,0.794606 -0.5829505,1.620901 0.7079112,0.04484 1.3572284,0.307918 1.8779975,0.726446 z"
     id="path14"
     style="stroke-width:0.597898" /><path
     fill-rule="evenodd"
     clip-rule="evenodd"
     d="m 26.198694,6.6163391 -1.694443,1.083989 c 0,0 0.404179,0.6062686 0.595506,1.2627606 0.106426,0.3252565 0.161433,0.6624709 0.184751,0.9183713 0.01256,0.12795 0.01973,0.235572 0.01973,0.311505 0.0012,0.07593 0.0024,0.119579 0.0024,0.119579 l 2.011927,-0.01495 c 0,0 -0.0012,-0.06099 -0.0048,-0.166814 0.0012,-0.107023 -0.0096,-0.2594873 -0.0281,-0.4418462 C 27.252788,9.324219 27.17267,8.8357364 27.021999,8.3687781 26.874916,7.9018197 26.681198,7.4510047 26.502426,7.1359124 26.420514,6.9738821 26.342189,6.8447361 26.285389,6.7562472 26.230382,6.6671604 26.198694,6.6163391 26.198694,6.6163391 Z"
     id="path16"
     style="stroke-width:0.597898" /><path
     fill-rule="evenodd"
     clip-rule="evenodd"
     d="M 14.273619,0.75753651 14.530715,2.805935 c 0,0 0.191327,-0.00837 0.476524,-0.019731 0.143496,5.979e-4 0.309712,-0.027503 0.487885,-0.00538 0.177576,0.014349 0.367707,0.031091 0.558437,0.046636 0.09447,0.010762 0.190131,0.01136 0.282806,0.029895 0.09088,0.019133 0.182358,0.037668 0.269652,0.056202 0.173988,0.03707 0.337214,0.070552 0.47772,0.099849 0.141104,0.023318 0.253509,0.063377 0.333029,0.090283 0.07952,0.02571 0.124961,0.040059 0.124961,0.040059 l 0.427497,-1.9874129 c 0,0 -0.05501,-0.017937 -0.153062,-0.049028 -0.09686,-0.032884 -0.23617,-0.080118 -0.408962,-0.10881741 C 17.235605,0.96321369 17.033516,0.92255669 16.81887,0.8789101 16.711249,0.8573858 16.600638,0.8352635 16.488233,0.8125434 16.37523,0.7904212 16.256846,0.7904212 16.141452,0.7772674 15.907674,0.7587326 15.675689,0.7395998 15.456859,0.7228587 15.346845,0.709705 15.241017,0.7126944 15.140571,0.7186737 c -0.100447,0.004185 -0.194915,0.008968 -0.282806,0.0125558 -0.350368,0.0155454 -0.584146,0.0263075 -0.584146,0.026307 z"
     id="path18"
     style="stroke-width:0.597898" /><path
     fill-rule="evenodd"
     clip-rule="evenodd"
     d="m 24.000223,18.994621 -1.815816,-0.863365 c 0,0 -0.101643,0.209863 -0.245138,0.536315 -0.143496,0.326452 -0.327051,0.777865 -0.475329,1.266348 -0.150671,0.486091 -0.257096,1.016426 -0.291775,1.436749 -0.03946,0.418528 -0.02093,0.714488 -0.02093,0.714488 l 2.009535,-0.07534 c 0,0 -0.01196,-0.177576 0.01375,-0.454403 0.02332,-0.276229 0.09566,-0.6541 0.213449,-1.034961 0.114199,-0.381459 0.268457,-0.763516 0.395809,-1.049311 0.124961,-0.285796 0.216439,-0.476525 0.216439,-0.476525 z"
     id="path20"
     style="stroke-width:0.597898" /><path
     fill-rule="evenodd"
     clip-rule="evenodd"
     d="m 26.773274,13.299643 -1.901316,-0.659482 c 0,0 -0.2559,0.738404 -0.618824,1.485179 -0.351564,0.744383 -0.765908,1.505507 -0.765908,1.505507 l 1.773964,0.94707 c 0,0 0.104034,-0.19611 0.259488,-0.48908 0.154257,-0.294764 0.358738,-0.692964 0.551261,-1.101926 0.395809,-0.809554 0.701335,-1.687268 0.701335,-1.687268 z"
     id="path22"
     style="stroke-width:0.597898" /><path
     fill-rule="evenodd"
     clip-rule="evenodd"
     d="m 38.895058,16.202437 c -0.07474,0.147681 -0.155454,0.301939 -0.23617,0.455599 -0.399396,0.761722 -0.834666,1.501322 -0.834666,1.501919 l 1.733904,1.020014 c 0,0 0.460382,-0.78205 0.879508,-1.583233 0.05859,-0.110014 0.11659,-0.220027 0.172793,-0.328844 -0.678614,-0.173391 -1.272925,-0.551262 -1.715369,-1.065455 z"
     id="path24"
     style="stroke-width:0.597898" /><path
     fill-rule="evenodd"
     clip-rule="evenodd"
     d="m 34.17824,23.034618 1.425987,1.41941 c 0,0 0.164422,-0.16801 0.411952,-0.420323 0.23019,-0.262477 0.554849,-0.603279 0.84184,-0.964409 0.597898,-0.710303 1.12345,-1.461263 1.12345,-1.461263 l -1.635848,-1.170684 c 0,0 -0.489081,0.700138 -1.03556,1.34826 -0.263673,0.333029 -0.556045,0.635565 -0.763516,0.874725 -0.221222,0.224211 -0.368305,0.374284 -0.368305,0.374284 z"
     id="path26"
     style="stroke-width:0.597898" /><path
     fill-rule="evenodd"
     clip-rule="evenodd"
     d="m 29.239603,25.853109 0.260683,1.995185 c 0,0 0.06517,-0.009 0.179968,-0.02392 0.114198,-0.01913 0.28161,-0.02989 0.468154,-0.0849 0.188936,-0.04843 0.411354,-0.105828 0.648121,-0.166216 0.231387,-0.07115 0.468154,-0.168009 0.710303,-0.257096 0.245138,-0.08191 0.460979,-0.209264 0.676223,-0.307917 0.106426,-0.05261 0.209264,-0.103437 0.306124,-0.151268 0.09447,-0.05202 0.178771,-0.105231 0.259487,-0.152464 0.31868,-0.191328 0.531532,-0.319278 0.531532,-0.319278 L 32.177674,24.70275 c 0,0 -0.175184,0.104632 -0.435868,0.261281 -0.06517,0.03827 -0.136919,0.08132 -0.211656,0.125559 -0.07713,0.03767 -0.159041,0.07713 -0.243942,0.118384 -0.170401,0.07653 -0.344389,0.184152 -0.533923,0.243344 -0.734817,0.324061 -1.512682,0.401788 -1.512682,0.401788 z"
     id="path28"
     style="stroke-width:0.597898" /></svg>
