<?xml version="1.0" encoding="UTF-8" standalone="no"?>
<svg
   version="1.1"
   x="0px"
   y="0px"
   viewBox="0 20 100 50"
   enable-background="new 0 0 100 100"
   xml:space="preserve"
   id="svg3511"
   sodipodi:docname="rideHistory-w.svg"
   inkscape:version="1.1 (c68e22c387, 2021-05-23)"
   xmlns:inkscape="http://www.inkscape.org/namespaces/inkscape"
   xmlns:sodipodi="http://sodipodi.sourceforge.net/DTD/sodipodi-0.dtd"
   xmlns="http://www.w3.org/2000/svg"
   xmlns:svg="http://www.w3.org/2000/svg"><defs
     id="defs3515" /><sodipodi:namedview
     id="namedview3513"
     pagecolor="#ffffff"
     bordercolor="#666666"
     borderopacity="1.0"
     inkscape:pageshadow="2"
     inkscape:pageopacity="0.0"
     inkscape:pagecheckerboard="0"
     showgrid="false"
     inkscape:zoom="7.104"
     inkscape:cx="49.971847"
     inkscape:cy="67.356419"
     inkscape:window-width="1827"
     inkscape:window-height="1051"
     inkscape:window-x="84"
     inkscape:window-y="-9"
     inkscape:window-maximized="1"
     inkscape:current-layer="svg3511" /><circle
     cx="18.149"
     cy="53.869"
     r="5.607"
     id="circle3479"
     style="fill:#ffffff;fill-opacity:1" /><circle
     cx="48.654"
     cy="31.43"
     r="5.606"
     id="circle3481"
     style="fill:#ffffff;fill-opacity:1" /><circle
     cx="54.262"
     cy="68.57"
     r="5.606"
     id="circle3483"
     style="fill:#ffffff;fill-opacity:1" /><circle
     cx="81.851"
     cy="49.276"
     r="5.607"
     id="circle3485"
     style="fill:#ffffff;fill-opacity:1" /><path
     fill-rule="evenodd"
     clip-rule="evenodd"
     d="M27.493,32.215l2.266,2.505c0,0,0.225-0.226,0.564-0.563  c0.166-0.171,0.389-0.341,0.613-0.539c0.232-0.187,0.457-0.417,0.725-0.592c0.26-0.185,0.52-0.369,0.764-0.543  c0.238-0.182,0.494-0.296,0.697-0.421c0.209-0.119,0.381-0.219,0.502-0.288c0.121-0.071,0.193-0.104,0.193-0.104l-1.322-3.173  c0,0.001-0.09,0.04-0.238,0.127c-0.148,0.083-0.361,0.203-0.617,0.348c-0.25,0.152-0.566,0.294-0.859,0.514  c-0.301,0.211-0.621,0.436-0.941,0.661c-0.328,0.214-0.607,0.493-0.893,0.722c-0.277,0.241-0.551,0.45-0.758,0.658  C27.771,31.94,27.493,32.215,27.493,32.215z"
     id="path3487"
     style="fill:#ffffff;fill-opacity:1" /><path
     fill-rule="evenodd"
     clip-rule="evenodd"
     d="M21.368,41.246l3.023,1.476c0,0,0.154-0.313,0.395-0.777  c0.119-0.232,0.26-0.504,0.41-0.793c0.16-0.283,0.33-0.586,0.5-0.889c0.332-0.61,0.717-1.179,0.982-1.624  c0.287-0.424,0.48-0.706,0.48-0.706l-2.773-1.904c0,0-0.215,0.313-0.533,0.784c-0.291,0.485-0.715,1.115-1.076,1.776  c-0.184,0.329-0.369,0.657-0.541,0.965c-0.162,0.313-0.314,0.604-0.443,0.854C21.532,40.909,21.368,41.246,21.368,41.246z"
     id="path3489"
     style="fill:#ffffff;fill-opacity:1" /><path
     fill-rule="evenodd"
     clip-rule="evenodd"
     d="M21.653,49.495c0.006-0.018,0.012-0.035,0.018-0.053  c0.445-1.344,0.955-2.66,0.955-2.66l-3.139-1.213c0.002,0-0.514,1.329-0.975,2.711C19.696,48.355,20.782,48.795,21.653,49.495z"
     id="path3491"
     style="fill:#ffffff;fill-opacity:1" /><path
     fill-rule="evenodd"
     clip-rule="evenodd"
     d="M56.36,36.89l-2.834,1.813c0,0,0.676,1.014,0.996,2.112  c0.178,0.544,0.27,1.108,0.309,1.536c0.021,0.214,0.033,0.394,0.033,0.521c0.002,0.127,0.004,0.2,0.004,0.2l3.365-0.025  c0,0-0.002-0.102-0.008-0.279c0.002-0.179-0.016-0.434-0.047-0.739c-0.055-0.61-0.189-1.427-0.441-2.208  c-0.246-0.781-0.57-1.535-0.869-2.062c-0.137-0.271-0.268-0.487-0.363-0.635C56.413,36.975,56.36,36.89,56.36,36.89z"
     id="path3493"
     style="fill:#ffffff;fill-opacity:1" /><path
     fill-rule="evenodd"
     clip-rule="evenodd"
     d="M36.415,27.091l0.43,3.426c0,0,0.32-0.014,0.797-0.033  c0.24,0.001,0.518-0.046,0.816-0.009c0.297,0.024,0.615,0.052,0.934,0.078c0.158,0.018,0.318,0.019,0.473,0.05  c0.152,0.032,0.305,0.063,0.451,0.094c0.291,0.062,0.564,0.118,0.799,0.167c0.236,0.039,0.424,0.106,0.557,0.151  c0.133,0.043,0.209,0.067,0.209,0.067l0.715-3.324c0,0-0.092-0.03-0.256-0.082c-0.162-0.055-0.395-0.134-0.684-0.182  c-0.287-0.059-0.625-0.127-0.984-0.2c-0.18-0.036-0.365-0.073-0.553-0.111c-0.189-0.037-0.387-0.037-0.58-0.059  c-0.391-0.031-0.779-0.063-1.145-0.091c-0.184-0.022-0.361-0.017-0.529-0.007c-0.168,0.007-0.326,0.015-0.473,0.021  C36.806,27.073,36.415,27.091,36.415,27.091z"
     id="path3495"
     style="fill:#ffffff;fill-opacity:1" /><path
     fill-rule="evenodd"
     clip-rule="evenodd"
     d="M52.683,57.593l-3.037-1.444c0,0-0.17,0.351-0.41,0.897s-0.547,1.301-0.795,2.118  c-0.252,0.813-0.43,1.7-0.488,2.403c-0.066,0.7-0.035,1.195-0.035,1.195l3.361-0.126c0,0-0.02-0.297,0.023-0.76  c0.039-0.462,0.16-1.094,0.357-1.731c0.191-0.638,0.449-1.277,0.662-1.755C52.53,57.912,52.683,57.593,52.683,57.593z"
     id="path3497"
     style="fill:#ffffff;fill-opacity:1" /><path
     fill-rule="evenodd"
     clip-rule="evenodd"
     d="M57.321,48.068l-3.18-1.103c0,0-0.428,1.235-1.035,2.484  c-0.588,1.245-1.281,2.518-1.281,2.518l2.967,1.584c0,0,0.174-0.328,0.434-0.818c0.258-0.493,0.6-1.159,0.922-1.843  C56.81,49.536,57.321,48.068,57.321,48.068z"
     id="path3499"
     style="fill:#ffffff;fill-opacity:1" /><path
     fill-rule="evenodd"
     clip-rule="evenodd"
     d="M77.595,52.923c-0.125,0.247-0.26,0.505-0.395,0.762  c-0.668,1.274-1.396,2.511-1.396,2.512l2.9,1.706c0,0,0.77-1.308,1.471-2.648c0.098-0.184,0.195-0.368,0.289-0.55  C79.329,54.415,78.335,53.783,77.595,52.923z"
     id="path3501"
     style="fill:#ffffff;fill-opacity:1" /><path
     fill-rule="evenodd"
     clip-rule="evenodd"
     d="M69.706,64.35l2.385,2.374c0,0,0.275-0.281,0.689-0.703  c0.385-0.439,0.928-1.009,1.408-1.613c1-1.188,1.879-2.444,1.879-2.444l-2.736-1.958c0,0-0.818,1.171-1.732,2.255  c-0.441,0.557-0.93,1.063-1.277,1.463C69.952,64.099,69.706,64.35,69.706,64.35z"
     id="path3503"
     style="fill:#ffffff;fill-opacity:1" /><path
     fill-rule="evenodd"
     clip-rule="evenodd"
     d="M61.446,69.064l0.436,3.337c0,0,0.109-0.015,0.301-0.04  c0.191-0.032,0.471-0.05,0.783-0.142c0.316-0.081,0.688-0.177,1.084-0.278c0.387-0.119,0.783-0.281,1.188-0.43  c0.41-0.137,0.771-0.35,1.131-0.515c0.178-0.088,0.35-0.173,0.512-0.253c0.158-0.087,0.299-0.176,0.434-0.255  c0.533-0.32,0.889-0.534,0.889-0.534l-1.844-2.814c0,0-0.293,0.175-0.729,0.437c-0.109,0.064-0.229,0.136-0.354,0.21  c-0.129,0.063-0.266,0.129-0.408,0.198c-0.285,0.128-0.576,0.308-0.893,0.407C62.747,68.934,61.446,69.064,61.446,69.064z"
     id="path3505"
     style="fill:#ffffff;fill-opacity:1" /></svg>
